<svg
   xmlns:dc="http://purl.org/dc/elements/1.1/"
   xmlns:cc="http://creativecommons.org/ns#"
   xmlns:rdf="http://www.w3.org/1999/02/22-rdf-syntax-ns#"
   xmlns:svg="http://www.w3.org/2000/svg"
   xmlns="http://www.w3.org/2000/svg"
   xmlns:sodipodi="http://sodipodi.sourceforge.net/DTD/sodipodi-0.dtd"
   xmlns:inkscape="http://www.inkscape.org/namespaces/inkscape"
   version="1.1"
   id="Layer_1"
   x="0px"
   y="0px"
   width="118.00001"
   height="44.998363"
   viewBox="0 0 118.00001 44.998362"
   enable-background="new 0 0 510.24 425.2"
   xml:space="preserve"
   inkscape:version="0.91 r13725"
   sodipodi:docname="logo.svg"><metadata
     id="metadata37"><rdf:RDF><cc:Work
         rdf:about=""><dc:format>image/svg+xml</dc:format><dc:type
           rdf:resource="http://purl.org/dc/dcmitype/StillImage" /><dc:title></dc:title></cc:Work></rdf:RDF></metadata><defs
     id="defs35" /><sodipodi:namedview
     pagecolor="#ffffff"
     bordercolor="#666666"
     borderopacity="1"
     objecttolerance="10"
     gridtolerance="10"
     guidetolerance="10"
     inkscape:pageopacity="0"
     inkscape:pageshadow="2"
     inkscape:window-width="1731"
     inkscape:window-height="1062"
     id="namedview33"
     showgrid="false"
     showborder="true"
     fit-margin-top="0"
     fit-margin-left="0"
     fit-margin-right="0"
     fit-margin-bottom="0"
     inkscape:zoom="0.55503291"
     inkscape:cx="-272.04913"
     inkscape:cy="14.478433"
     inkscape:window-x="0"
     inkscape:window-y="0"
     inkscape:window-maximized="0"
     inkscape:current-layer="Layer_1" /><g
     id="g3"
     transform="matrix(0.52797947,0,0,0.52797947,-63.087447,-85.514466)"><g
       id="g5"><path
         d="m 190.314,175.657 6.579,0 16.604,53.469 0.209,0 0,-53.469 5.43,0 0,70.491 -5.43,0 -17.753,-56.393 -0.209,0 0,56.393 -5.43,0 0,-70.491 z"
         id="path7"
         inkscape:connector-curvature="0"
         style="fill:#fdb913" /><path
         d="m 229.054,188.189 c 0,-7.519 6.057,-13.576 13.576,-13.576 7.519,0 13.577,6.057 13.577,13.576 l 0,45.428 c 0,7.519 -6.058,13.576 -13.577,13.576 -7.519,0 -13.576,-6.058 -13.576,-13.576 l 0,-45.428 z m 5.431,45.428 c 0,4.49 3.655,8.145 8.146,8.145 4.491,0 8.146,-3.654 8.146,-8.145 l 0,-45.428 c 0,-4.49 -3.655,-8.146 -8.146,-8.146 -4.49,0 -8.146,3.655 -8.146,8.146 l 0,45.428 z"
         id="path9"
         inkscape:connector-curvature="0"
         style="fill:#fdb913" /><path
         d="m 271.555,215.445 0,30.703 -5.43,0 0,-70.491 12.009,0 c 8.042,0 14.62,6.579 14.62,14.621 l 0,10.547 c 0,8.042 -6.578,14.62 -14.62,14.62 l -6.579,0 z m 6.579,-5.43 c 5.117,0 9.19,-4.073 9.19,-9.19 l 0,-10.547 c 0,-5.117 -4.073,-9.19 -9.19,-9.19 l -6.579,0 0,28.927 6.579,0 z"
         id="path11"
         inkscape:connector-curvature="0"
         style="fill:#fdb913" /><path
         d="m 300.48,246.148 0,-70.491 5.43,0 0,70.491 -5.43,0 z"
         id="path13"
         inkscape:connector-curvature="0"
         style="fill:#fdb913" /><path
         d="m 315.83,188.189 c 0,-7.519 6.057,-13.576 13.576,-13.576 7.519,0 13.576,6.057 13.576,13.576 l 0,45.428 c 0,7.519 -6.057,13.576 -13.576,13.576 -7.519,0 -13.576,-6.058 -13.576,-13.576 l 0,-45.428 z m 5.43,45.428 c 0,4.49 3.656,8.145 8.146,8.145 4.49,0 8.145,-3.654 8.145,-8.145 l 0,-45.428 c 0,-4.49 -3.654,-8.146 -8.145,-8.146 -4.491,0 -8.146,3.655 -8.146,8.146 l 0,45.428 z"
         id="path15"
         inkscape:connector-curvature="0"
         style="fill:#fdb913" /></g><g
       id="g17"><g
         id="g19"><g
           id="g21"><path
             d="m 122.766,210.178 c -0.671,-0.377 -1.213,-0.772 -1.63,-1.189 -0.419,-0.503 -0.836,-1.067 -1.256,-1.694 -0.416,-0.625 -0.499,-1.066 -0.248,-1.316 l 13.411,-13.412 c 0.754,-0.752 0.754,-1.506 0,-2.256 l -6.893,-6.894 c -1.923,-1.922 -4.055,-4.094 -6.394,-6.519 -0.334,-0.333 -0.356,-0.753 -0.062,-1.255 0.293,-0.5 0.771,-1.085 1.442,-1.754 0.668,-0.584 1.274,-1.044 1.818,-1.379 0.542,-0.333 0.939,-0.375 1.191,-0.125 l 14.791,14.918 c 1.42,1.42 2.109,2.799 2.068,4.135 -0.043,1.338 -0.733,2.717 -2.068,4.137 l -14.791,14.792 c -0.252,0.25 -0.714,0.187 -1.379,-0.189 z"
             id="path23"
             inkscape:connector-curvature="0"
             style="fill:#fdb913" /></g><g
           id="g25"><path
             d="m 136.09,163.216 c 0.643,-0.42 1.245,-0.719 1.807,-0.896 0.64,-0.141 1.332,-0.249 2.081,-0.33 0.748,-0.083 1.177,0.045 1.284,0.384 l 5.707,18.09 c 0.322,1.015 0.988,1.361 2.001,1.04 l 9.298,-2.933 c 2.594,-0.819 5.504,-1.707 8.735,-2.663 0.448,-0.142 0.829,0.032 1.14,0.522 0.31,0.49 0.607,1.186 0.892,2.09 0.208,0.861 0.337,1.61 0.382,2.248 0.047,0.635 -0.1,1.009 -0.438,1.114 l -20.059,6.237 c -1.917,0.604 -3.456,0.58 -4.624,-0.074 -1.167,-0.655 -2.073,-1.905 -2.716,-3.744 l -6.295,-19.949 c -0.105,-0.337 0.163,-0.716 0.805,-1.136 z"
             id="path27"
             inkscape:connector-curvature="0"
             style="fill:#fdb913" /></g><g
           id="g29"><path
             d="m 171.6,196.713 c 0.077,0.764 0.063,1.436 -0.04,2.017 -0.17,0.632 -0.392,1.296 -0.667,1.997 -0.271,0.702 -0.584,1.024 -0.933,0.962 l -18.681,-3.285 c -1.05,-0.183 -1.665,0.248 -1.846,1.296 l -1.693,9.602 c -0.468,2.679 -1.024,5.671 -1.667,8.977 -0.08,0.466 -0.409,0.723 -0.99,0.771 -0.577,0.05 -1.332,-0.009 -2.265,-0.172 -0.861,-0.213 -1.583,-0.445 -2.171,-0.699 -0.584,-0.25 -0.849,-0.555 -0.787,-0.902 l 3.725,-20.676 c 0.349,-1.977 1.081,-3.332 2.199,-4.067 1.12,-0.73 2.646,-0.96 4.575,-0.68 l 20.604,3.622 c 0.349,0.06 0.561,0.474 0.637,1.237 z"
             id="path31"
             inkscape:connector-curvature="0"
             style="fill:#fdb913" /></g></g></g></g></svg>